<svg xmlns="http://www.w3.org/2000/svg" version="1.1" xmlns:xlink="http://www.w3.org/1999/xlink" xmlns:svgjs="http://svgjs.dev/svgjs" width="1000" height="1000" viewBox="0 0 1000 1000"><rect width="1000" height="1000" fill="#ffffff"></rect><g transform="matrix(0.7,0,0,0.7,149.9625485416667,293.96862021276604)"><svg viewBox="0 0 240 141" data-background-color="#ffffff" preserveAspectRatio="xMidYMid meet" height="587" width="1000" xmlns="http://www.w3.org/2000/svg" xmlns:xlink="http://www.w3.org/1999/xlink"><g id="tight-bounds" transform="matrix(1,0,0,1,0.012840499999981603,0.19949999999997203)"><svg viewBox="0 0 239.97431900000004 140.60052000000002" height="140.60052000000002" width="239.97431900000004"><g><svg viewBox="0 0 239.97431900000004 140.60052000000002" height="140.60052000000002" width="239.97431900000004"><g><svg viewBox="0 0 239.97431900000004 140.60052000000002" height="140.60052000000002" width="239.97431900000004"><g><path d="M0 140.601v-140.601h239.974v140.601z" fill="#000000" stroke="transparent" stroke-width="0" rx="0%" data-fill-palette-color="tertiary"></path><path d="M3.283 137.317v-134.034h233.408v134.034z" fill="#ffffff" stroke="transparent" stroke-width="0" rx="0%" data-fill-palette-color="quaternary"></path><path d="M9.85 130.751v-120.901h220.274v120.901z" fill="#000000" stroke="transparent" stroke-width="0" data-fill-palette-color="tertiary"></path></g><g transform="matrix(1,0,0,1,19.69974,19.69974)" id="textblocktransform"><svg viewBox="0 0 200.57483900000005 101.20104000000002" height="101.20104000000002" width="200.57483900000005" id="textblock"><g><svg viewBox="0 0 200.57483900000005 101.20104000000002" height="101.20104000000002" width="200.57483900000005"><g transform="matrix(1,0,0,1,0,0)"><svg width="200.57483900000005" viewBox="2.299999952316284 -36 71.3499984741211 36" height="101.20104000000002" data-palette-color="#ffffff"><path d="M27.55-19.1L27.55-19.1Q26.65-18.4 25.48-17.85 24.3-17.3 22.55-16.95L22.55-16.95Q22.9-16.55 23.45-15.88 24-15.2 24.5-14.35L24.5-14.35 31-3.35 35.45-2.4 35.45 0 24.65 0 24.65-2.4 17.65-16 12-16 12-3.45 16.75-2.4 16.75 0 2.3 0 2.3-2.4 6.5-3.45 6.5-32.55 2.3-33.6 2.3-36 20-36Q22.4-36 24.2-35.55 26-35.1 27.45-34.1L27.45-34.1Q29.25-32.9 30.3-30.8 31.35-28.7 31.35-26.6L31.35-26.6Q31.35-24.5 30.33-22.48 29.3-20.45 27.55-19.1ZM12-32.85L12-19.15 18.65-19.15Q21.4-19.15 23.2-20.7L23.2-20.7Q24.2-21.6 24.78-23.1 25.35-24.6 25.35-26.3L25.35-26.3Q25.35-27.95 24.75-29.33 24.15-30.7 23.15-31.55L23.15-31.55Q22.3-32.25 21.18-32.55 20.05-32.85 18.45-32.85L18.45-32.85 12-32.85ZM73.65-33.6L69.45-32.55 69.45-3.45 73.65-2.4 73.65 0 59.75 0 59.75-2.4 63.95-3.45 63.95-16.9 47.5-16.9 47.5-3.45 51.7-2.4 51.7 0 37.8 0 37.8-2.4 42-3.45 42-32.55 37.8-33.6 37.8-36 51.7-36 51.7-33.6 47.5-32.55 47.5-20.05 63.95-20.05 63.95-32.55 59.75-33.6 59.75-36 73.65-36 73.65-33.6Z" opacity="1" transform="matrix(1,0,0,1,0,0)" fill="#ffffff" class="wordmark-text-0" data-fill-palette-color="quaternary" id="text-0"></path></svg></g></svg></g></svg></g></svg></g><g></g></svg></g><defs></defs></svg><rect width="239.97431900000004" height="140.60052000000002" fill="none" stroke="none" visibility="hidden"></rect></g></svg></g></svg>